<svg xmlns="http://www.w3.org/2000/svg" viewBox="0 0 311.94 434.92"><defs><style>.cls-1{fill:#37474f;}.cls-2,.cls-8{fill:#ffc727;}.cls-3,.cls-4{opacity:0.1;}.cls-5{fill:#263238;}.cls-6{fill:#455a64;}.cls-7{opacity:0.2;}.cls-10,.cls-11,.cls-8{opacity:0.5;}.cls-10,.cls-9{fill:#fff;}</style></defs><g id="Layer_2" data-name="Layer 2"><g id="Android"><path class="cls-1" d="M89.33,98.51C83.85,100.32,72.2,92,67.81,85.37c-.3-.46,0-5.53.07-11.72,0-3.75,0-7.93-.36-11.74-.07-.78,2.72.42,2.72.42l5,.77,15.41,1.25a147.85,147.85,0,0,0,.19,16.14,8.87,8.87,0,0,0,.3,1.55c0,.07,0,.16.06.26C92,85.23,94.64,96.76,89.33,98.51Z"/><path class="cls-1" d="M66,61.51A24.75,24.75,0,0,0,73.79,66a20.77,20.77,0,0,0,15.57-.33,17.58,17.58,0,0,0,8.38-8.07C104,45.72,96.54,19,89,13.87,77.86,6.31,59.45,11.09,56.26,25.36,54.1,35,59.18,55.77,66,61.51Z"/><path class="cls-1" d="M86.89,39.41c.46,6.21,4.77,11,9.64,10.59s8.43-5.69,8-11.9-4.78-11-9.64-10.59S86.42,33.2,86.89,39.41Z"/><path class="cls-2" d="M64.66,64.45c9.42,8.94,19.69,8.74,24.91,6.43,3.72-1.62,7.67-6.67,9.92-10.75,6.91-12.43-1.76-39.5-9.37-45.72a18.18,18.18,0,0,0-8.86-3.69c6.83,3.53,9.11,16.62,9.11,16.62L74.59,30.09s-2.92-15.26-10.1-16.77c0,0-7,1.76-10.35,12.94C51.12,36.25,57.71,57.85,64.66,64.45Z"/><g class="cls-3"><path d="M59.7,57.18c2.78-3.19,8.24-9.53,8.35-10.33.14-1.08-.93-11.75-1.36-12.77a162.87,162.87,0,0,0-9.91-13.9,27.19,27.19,0,0,0-2.64,6.08C51.87,33.77,55,47.85,59.7,57.18Z"/><path d="M80.53,72.13a18.4,18.4,0,0,0,9-1.24,13.51,13.51,0,0,0,3.68-2.58,9.22,9.22,0,0,0-2.68-1.2,38.88,38.88,0,0,0-6.72,1.2C83.33,68.5,81.57,70.76,80.53,72.13Z"/><path d="M94.74,27c.05.93,3.83,13.76,4,14.42A28.94,28.94,0,0,0,101.89,45,63.82,63.82,0,0,0,95,20.89C94.84,23.58,94.72,26.49,94.74,27Z"/></g><g class="cls-3"><path d="M74.59,30.09q.48,2.6.87,5.19l.83,5.19c.52,3.47,1.08,6.93,1.57,10.4.25,1.74.5,3.47.73,5.21.1.86.21,1.73.27,2.6s0,1.73,0,2.6c0,1.74-.18,3.49-.39,5.22a43,43,0,0,1-.91,5.17A42.31,42.31,0,0,0,79.37,61.3a23.52,23.52,0,0,0,.06-2.66c-.06-.89-.15-1.76-.25-2.63-.21-1.75-.43-3.49-.69-5.23-.54-3.47-1.08-6.94-1.72-10.39S75.48,33.49,74.59,30.09Z"/><path d="M90.37,27.34c.67,3.28,1.18,6.59,1.71,9.89l1.55,9.92c.51,3.31,1,6.62,1.44,9.93a30.61,30.61,0,0,1,.24,5A14.9,14.9,0,0,1,94.58,67a7.82,7.82,0,0,0,.76-2.4,23.26,23.26,0,0,0,.32-2.51,31.55,31.55,0,0,0,0-5c-.38-3.34-.85-6.65-1.36-10s-1.07-6.61-1.7-9.9S91.29,30.56,90.37,27.34Z"/></g><path class="cls-4" d="M95.58,32.08A58,58,0,0,1,98,44.55,116.2,116.2,0,0,1,70.52,49s-1.22-6.07-1.94-12.52A143.86,143.86,0,0,1,95.58,32.08Z"/><path class="cls-5" d="M94.9,33.09a40.88,40.88,0,0,1,2.19,10.72A109.07,109.07,0,0,1,71.23,48s-1-4.69-1.73-10.75A135.4,135.4,0,0,1,94.9,33.09Z"/><path class="cls-2" d="M75.44,38.61c-3.41.53-2.1,7.31,1.06,6.81S78.29,38.16,75.44,38.61Z"/><path class="cls-2" d="M90.62,35.91c3.32-.91,4.9,5.81,1.82,6.65S87.83,36.67,90.62,35.91Z"/><path class="cls-1" d="M49,46.27c.9,6.17,5.53,10.6,10.36,9.9s8-6.26,7.12-12.43S61,33.15,56.13,33.85,48.11,40.11,49,46.27Z"/><path class="cls-6" d="M50.07,46c.53,3.68,3.3,6.32,6.17,5.9s4.78-3.73,4.25-7.4-3.3-6.32-6.17-5.9S49.54,42.35,50.07,46Z"/><path class="cls-1" d="M108.51,396.75c-4.14-1-55.32-10.9-56-11s-4,7.75-3.67,8.9,39.34,18.62,47.39,20.47c12.22,2.81,37.62.36,38.79-.08s1.26-7.07.53-8.41C135.16,406,112.65,397.78,108.51,396.75Z"/><path class="cls-2" d="M133.87,408s-5-15.73-13.15-22.36c-3.2-2.61-21-9.51-21-9.51L68.83,363.64S58.74,373.1,57.48,376s-4.14,13.45-4.14,13.45,34.74,18,46.05,19.66C119.34,412.13,133.87,408,133.87,408Z"/><path class="cls-1" d="M102.84,277.65s6.72-2.14,12-.87a104.07,104.07,0,0,0,11.78,1.89s-2.5,23.76-4.19,25.34-18.31,1.43-19.36-.79S102.84,277.65,102.84,277.65Z"/><path class="cls-2" d="M129.75,303.56c.07,4.27-28.79,68.18-32.16,70.19S73.1,368,70.44,362.3s7.9-42.94,9.87-49,20.14-22,21.63-20.91C114.78,301.94,129.68,299.82,129.75,303.56Z"/><g class="cls-7"><path d="M102.16,301.82a.9.9,0,1,1,0,1.78.88.88,0,0,1-.8-.87A.9.9,0,0,1,102.16,301.82Zm0,1.57a.69.69,0,0,0,.54-.69.67.67,0,0,0-.58-.66.68.68,0,0,0-.76.69A.69.69,0,0,0,102.2,303.39Z"/><path d="M96.82,306.83a.9.9,0,1,1-.76.92A.9.9,0,0,1,96.82,306.83Zm0,1.57a.68.68,0,0,0,.54-.69.67.67,0,0,0-.57-.65.68.68,0,0,0-.77.69A.69.69,0,0,0,96.86,308.4Z"/><path d="M91.71,311.75a.91.91,0,0,1,1,.87.9.9,0,0,1-1,.91.88.88,0,0,1-.8-.87A.9.9,0,0,1,91.71,311.75Zm0,1.56a.67.67,0,0,0,.55-.68.69.69,0,0,0-.58-.66.67.67,0,0,0-.76.69A.67.67,0,0,0,91.75,313.31Z"/><path d="M87.58,316.94a.9.9,0,1,1,0,1.78.9.9,0,0,1,0-1.78Zm0,1.56a.68.68,0,0,0,0-1.34.68.68,0,1,0,0,1.34Z"/><path d="M85,324.06a.9.9,0,1,1-.76.92A.91.91,0,0,1,85,324.06Zm0,1.57a.68.68,0,0,0,0-1.34.68.68,0,0,0-.77.69A.69.69,0,0,0,85,325.63Z"/><path d="M80.92,339.24a.91.91,0,0,1,1,.87.9.9,0,0,1-1,.91.88.88,0,0,1-.8-.87A.9.9,0,0,1,80.92,339.24Zm0,1.56a.67.67,0,0,0,.55-.68.69.69,0,0,0-.58-.66.67.67,0,0,0-.76.69A.67.67,0,0,0,81,340.8Z"/><path d="M76.52,355a.89.89,0,0,1,1,.86.89.89,0,1,1-1.78,0A.89.89,0,0,1,76.52,355Zm0,1.56a.68.68,0,0,0,.55-.69.69.69,0,0,0-.58-.65.68.68,0,1,0,0,1.34Z"/><path d="M82.92,331.53a.89.89,0,0,1,1,.86.89.89,0,1,1-1-.86Zm0,1.56a.68.68,0,0,0,.55-.69.69.69,0,0,0-.58-.65.68.68,0,1,0,0,1.34Z"/><path d="M79,347a.9.9,0,1,1,0,1.78.88.88,0,0,1-.8-.87A.9.9,0,0,1,79,347Zm0,1.56a.68.68,0,1,0-.8-.65A.68.68,0,0,0,79.07,348.57Z"/><path d="M102.06,298c-4.18,3.82-8.3,7.72-12.24,11.8-1,1-2,2.05-2.88,3.13-.47.53-.93,1.09-1.36,1.66-.22.28-.41.61-.61.91s-.32.65-.48,1a62.15,62.15,0,0,0-2.8,8.07c-1.55,5.46-2.89,11-4.18,16.48l-1.92,8.27c-.62,2.77-1.24,5.53-1.94,8.27.8-2.71,1.53-5.45,2.26-8.19L78,341.09c1.4-5.49,2.73-11,4.32-16.42a62,62,0,0,1,2.71-8c.15-.31.29-.64.45-.94s.36-.57.57-.85c.42-.56.86-1.11,1.32-1.64.91-1.07,1.86-2.11,2.82-3.16,1.92-2.07,3.9-4.1,5.88-6.11S100,299.94,102.06,298Z"/></g><path class="cls-1" d="M98.4,372.47c3.58-.1,1.37,5.19-5.63,5.12-10.61-.1-25.16-9.71-25.82-13.3s2.13-6.35,2.49-5.12S85.59,372.81,98.4,372.47Z"/><path class="cls-1" d="M115.23,210.42s-7.78,5.76-13.23,5.94-15.48.55-15.48.55-.48-18,.74-20,17.55-11,19.15-9.17S115.23,210.42,115.23,210.42Z"/><path class="cls-2" d="M118.28,207.37c5.1,6.54,12.69,68.51,10.76,74.06s-25.55,12.8-31.71,8.23-17.77-70.84-14.47-76.41c1.82-3.07,7.36,1.83,18.28-1.08C115.76,208.28,113.9,201.74,118.28,207.37Z"/><g class="cls-7"><path d="M95.53,217.25a.9.9,0,1,1-.22,1.17A.9.9,0,0,1,95.53,217.25Zm.8,1.35a.68.68,0,0,0,.13-.87.67.67,0,0,0-.82-.29.68.68,0,1,0,.69,1.16Z"/><path d="M95.65,225.55a.9.9,0,1,1-.22,1.17A.89.89,0,0,1,95.65,225.55Zm.8,1.34a.68.68,0,1,0-1-.17A.69.69,0,0,0,96.45,226.89Z"/><path d="M95.8,234a.89.89,0,0,1,1.31.25.9.9,0,0,1-.4,1.28.91.91,0,0,1-1.13-.37A.89.89,0,0,1,95.8,234Zm.8,1.34a.68.68,0,1,0-1-.18A.69.69,0,0,0,96.6,235.33Z"/><path d="M96.8,242.49a.9.9,0,1,1,.91,1.53.88.88,0,0,1-1.12-.36A.9.9,0,0,1,96.8,242.49Zm.8,1.34a.67.67,0,0,0,.14-.86.67.67,0,1,0-.14.86Z"/><path d="M97.49,250.68a.9.9,0,1,1,.91,1.53.88.88,0,0,1-1.12-.36A.9.9,0,0,1,97.49,250.68Zm.8,1.34a.67.67,0,0,0,.14-.86.67.67,0,1,0-1.15.69A.67.67,0,0,0,98.29,252Z"/><path d="M98.45,258.15a.9.9,0,0,1,1.32.25.91.91,0,0,1-.41,1.28.9.9,0,0,1-1.12-.37A.88.88,0,0,1,98.45,258.15Zm.8,1.34a.69.69,0,0,0,.14-.87.7.7,0,0,0-.83-.29.68.68,0,0,0-.32,1A.67.67,0,0,0,99.25,259.49Z"/><path d="M99.76,265.64a.9.9,0,1,1-.21,1.17A.9.9,0,0,1,99.76,265.64Zm.81,1.34a.68.68,0,0,0-.69-1.15.68.68,0,0,0-.33,1A.69.69,0,0,0,100.57,267Z"/><path d="M101,272.93a.9.9,0,1,1-.21,1.16A.9.9,0,0,1,101,272.93Zm.81,1.34a.68.68,0,1,0-1-.18A.68.68,0,0,0,101.83,274.27Z"/><path d="M102.18,279.67a.9.9,0,0,1,1.31.26.89.89,0,0,1-.4,1.27.9.9,0,0,1-.91-1.53ZM103,281a.69.69,0,0,0,.14-.87.7.7,0,0,0-.83-.29.69.69,0,0,0-.33,1A.68.68,0,0,0,103,281Z"/><path d="M103.85,286.6a.9.9,0,1,1-.22,1.17A.89.89,0,0,1,103.85,286.6Zm.8,1.34a.68.68,0,0,0-.69-1.15.68.68,0,0,0-.33,1A.69.69,0,0,0,104.65,287.94Z"/><path d="M92.73,213.64A154.11,154.11,0,0,0,93,232.86c.43,6.4,1.11,12.77,2,19.13.46,3.17.93,6.35,1.49,9.5s1.14,6.31,1.74,9.46,1.33,6.27,2,9.41l2.28,9.34-2.07-9.39c-.62-3.14-1.33-6.26-1.9-9.42s-1.18-6.29-1.67-9.46-1-6.33-1.42-9.5c-.88-6.34-1.61-12.71-2.09-19.09-.23-3.2-.42-6.39-.51-9.6S92.6,216.84,92.73,213.64Z"/></g><path class="cls-4" d="M98.82,212.68l-11.57,42.9c-3.65-19-6.16-39.34-4.39-42.32S89.43,214.4,98.82,212.68Z"/><path class="cls-1" d="M48.59,279.91s6.72-2.13,12-.87,15.08,3.53,15.08,3.53-5.8,22.13-7.49,23.7-18.31,1.44-19.37-.78S48.59,279.91,48.59,279.91Z"/><path class="cls-2" d="M42,296.89c-.84,1.75-4.39,15.33-4.51,30.56-.15,19.39,3.38,41.3,4.67,43.17,2.31,3.34,25.52,5.09,30.45.91s6.72-35.89,7-43.62c.24-6.59-3.25-29.88-5.13-29.48C58.32,301.87,43.67,293.4,42,296.89Z"/><g class="cls-7"><path d="M71.19,302.39a.87.87,0,1,1-.32-1.12A.89.89,0,0,1,71.19,302.39Zm0,0a.66.66,0,0,0-.41-.92.67.67,0,0,0-.56,1.19A.66.66,0,0,0,71.19,302.39Z"/><path d="M71.9,310.5a.88.88,0,1,1-.33-1.11A.87.87,0,0,1,71.9,310.5Zm0,0a.66.66,0,1,0-1.19-.55.66.66,0,0,0,.22.83A.67.67,0,0,0,71.9,310.5Z"/><path d="M72.59,318.76A.88.88,0,1,1,71,318a.88.88,0,1,1,1.59.74Zm0,0a.66.66,0,1,0-1.2-.56.66.66,0,1,0,1.2.56Z"/><path d="M72.45,327.16a.87.87,0,1,1-1.58-.74.88.88,0,0,1,1.26-.37A.87.87,0,0,1,72.45,327.16Zm0,0a.66.66,0,1,0-1,.28A.67.67,0,0,0,72.45,327.16Z"/><path d="M72.59,335.23a.87.87,0,1,1-1.58-.74.87.87,0,1,1,1.58.74Zm0,0a.67.67,0,0,0-.42-.92.66.66,0,0,0-.77.37.66.66,0,0,0,.22.83A.67.67,0,0,0,72.59,335.23Z"/><path d="M72.39,342.62a.87.87,0,1,1-.32-1.12A.89.89,0,0,1,72.39,342.62Zm0,0a.66.66,0,0,0-.41-.92.67.67,0,0,0-.56,1.19A.66.66,0,0,0,72.39,342.62Z"/><path d="M71.85,350.07a.87.87,0,1,1-.32-1.12A.88.88,0,0,1,71.85,350.07Zm0,0a.66.66,0,1,0-1,.27A.66.66,0,0,0,71.85,350.07Z"/><path d="M71.35,357.31A.88.88,0,1,1,71,356.2.88.88,0,0,1,71.35,357.31Zm0,0a.66.66,0,1,0-1,.28A.68.68,0,0,0,71.35,357.31Z"/><path d="M70.89,364a.88.88,0,1,1-.33-1.12A.88.88,0,0,1,70.89,364Zm0,0a.66.66,0,1,0-1.2-.56.66.66,0,1,0,1.2.56Z"/><path d="M70,371a.89.89,0,0,1-1.07.46A.88.88,0,1,1,70,371Zm0,0a.66.66,0,1,0-1,.27A.67.67,0,0,0,70,371Z"/><path d="M73.36,299.46A143.81,143.81,0,0,1,75,317.76c.21,6.12.16,12.25,0,18.38-.15,3.06-.29,6.12-.53,9.17s-.5,6.11-.78,9.17-.68,6.09-1,9.13l-1.31,9.11,1.1-9.13c.31-3,.69-6.09.94-9.14s.54-6.1.71-9.16.33-6.11.46-9.17c.24-6.11.33-12.23.17-18.35-.08-3.06-.21-6.12-.44-9.17S73.8,302.49,73.36,299.46Z"/></g><path class="cls-2" d="M80.17,400.82,73.3,376.06l-30.71-.46s-11.87,29.24-11.81,29.15S80.17,400.82,80.17,400.82Z"/><path class="cls-4" d="M80.17,400.82,73.3,376.06l-30.71-.46s-11.87,29.24-11.81,29.15S80.17,400.82,80.17,400.82Z"/><path class="cls-1" d="M90.07,413s-27.45,1.15-32,1.2-35.65,7.29-35.65,7.29-.56,7.45-.3,8.12,30,7,42.1,4.94,29.58-11.82,29.49-12.34S90.07,413,90.07,413Z"/><path class="cls-2" d="M90,417.44s-15.68,8.58-24.8,9.88S24,423.51,24,423.51s3.69-17.9,12.35-26.52,27.48-9.15,35.19-5.18S90,417.44,90,417.44Z"/><path class="cls-1" d="M82.24,215.39s-9.07,3.38-14.36,2-15-3.76-15-3.76,4.55-17.46,6.26-19,20.4-.59,21.42,1.64S82.24,215.39,82.24,215.39Z"/><path class="cls-2" d="M51.79,210.13c-4.47,6.81-8.42,68.75-6.11,74s26,10.59,31.67,5.65,10.43-75.22,5-78.52c-2.47-1.5-3.23,2.77-16,2.9C61.62,214.25,53.73,207.17,51.79,210.13Z"/><g class="cls-7"><path d="M77,219a.88.88,0,1,1-.3-1.12A.88.88,0,0,1,77,219Zm0,0a.67.67,0,0,0-.4-.93.67.67,0,1,0,.4.93Z"/><path d="M77.48,227.08a.87.87,0,0,1-1.07.44.88.88,0,1,1,.77-1.56A.88.88,0,0,1,77.48,227.08Zm0,0a.66.66,0,1,0-1.18-.58.66.66,0,1,0,1.18.58Z"/><path d="M78,235.35a.86.86,0,0,1-1.07.44.88.88,0,1,1,.78-1.56A.86.86,0,0,1,78,235.35Zm0,0a.66.66,0,0,0-.39-.93A.67.67,0,0,0,77,235.6.66.66,0,0,0,78,235.35Z"/><path d="M77.64,243.75a.87.87,0,0,1-1.07.44.88.88,0,1,1,.77-1.56A.88.88,0,0,1,77.64,243.75Zm0,0a.66.66,0,1,0-1.18-.58.66.66,0,1,0,1.18.58Z"/><path d="M77.59,251.82a.88.88,0,1,1-.3-1.12A.88.88,0,0,1,77.59,251.82Zm0,0a.67.67,0,0,0-.4-.93.66.66,0,0,0-.78.35.65.65,0,0,0,.2.83A.66.66,0,0,0,77.59,251.82Z"/><path d="M77.22,259.2a.88.88,0,1,1-1.57-.78.88.88,0,1,1,1.57.78Zm0,0a.67.67,0,0,0-.4-.93.67.67,0,0,0-.58,1.18A.67.67,0,0,0,77.22,259.2Z"/><path d="M76.5,266.63a.87.87,0,1,1-.3-1.12A.88.88,0,0,1,76.5,266.63Zm0,0a.66.66,0,1,0-1.18-.58.66.66,0,1,0,1.18.58Z"/><path d="M75.82,273.87a.88.88,0,0,1-1.07.44.88.88,0,1,1,1.07-.44Zm0,0a.66.66,0,1,0-1.18-.59.66.66,0,1,0,1.18.59Z"/><path d="M75.21,280.56a.88.88,0,1,1-.3-1.13A.89.89,0,0,1,75.21,280.56Zm0,0A.66.66,0,1,0,74,280a.65.65,0,0,0,.2.83A.67.67,0,0,0,75.21,280.56Z"/><path d="M74.1,287.46a.88.88,0,1,1-.3-1.12A.88.88,0,0,1,74.1,287.46Zm0,0a.66.66,0,1,0-1.18-.58.66.66,0,1,0,1.18.58Z"/><path d="M79.13,214.07a150.23,150.23,0,0,1,1.21,18.84c.07,6.29-.12,12.59-.45,18.87-.21,3.14-.43,6.28-.74,9.42s-.64,6.26-1,9.39-.81,6.24-1.22,9.36l-1.52,9.31,1.31-9.34c.38-3.13.83-6.24,1.15-9.37s.68-6.25.91-9.38.48-6.27.67-9.41c.38-6.28.61-12.56.59-18.85,0-3.14-.07-6.29-.23-9.43S79.51,217.2,79.13,214.07Z"/></g><circle class="cls-5" cx="67.14" cy="195.22" r="7.9" transform="translate(-138.08 172.75) rotate(-64.77)"/><path class="cls-1" d="M42.17,369.88c-3.13-1.6-3.41,4,2.81,6.92,9.45,4.41,26.4,2.06,28.5-.83s.81-6.54,0-5.6S53.37,375.61,42.17,369.88Z"/><path class="cls-1" d="M181.66,73.34s7.86,1.08,10.83,4.17,8.44,8.73,8.44,8.73-11.65,11.14-13.58,11.61-12.52-4.66-12.56-9.37C174.77,86.38,181.66,73.34,181.66,73.34Z"/><path class="cls-2" d="M198.76,90.39c-4.32,1.74-19.63-8-20.85-12.82-.4-1.61,7.57-25.21,11.77-25.74s26.84,15.18,24.93,20S201,89.47,198.76,90.39Z"/><path class="cls-1" d="M214.19,71.85c-1.35,1.11-4.6,0-6.59-2.19-2.79-3.13-3-5.6-2.11-6.83.62-.86,3.93-1.31,7.2,2.33C215.33,68.1,215.26,71,214.19,71.85Z"/><path class="cls-2" d="M206.57,62.55c2.39-2.45,10.06-8.56,11.49-8.4,4.13.43,5.62,5,4.68,6.7-.55,1-6.73,9.95-9.33,9.84C209.46,70.51,205.07,64.08,206.57,62.55Z"/><path class="cls-5" d="M206.57,62.55a57.56,57.56,0,0,1,4.62-4.06,49.56,49.56,0,0,1,5-3.62,8.12,8.12,0,0,1,1.38-.7,1.34,1.34,0,0,1,.79-.05,4.15,4.15,0,0,1,.76.17A5.43,5.43,0,0,1,221.69,56,6.2,6.2,0,0,1,223,58.76a3.78,3.78,0,0,1,0,1.57,4.11,4.11,0,0,1-.71,1.4,61.67,61.67,0,0,1-3.74,4.91,29.87,29.87,0,0,1-2.11,2.25A7.67,7.67,0,0,1,214,70.66a2.72,2.72,0,0,1-1.55-.09,6.68,6.68,0,0,1-1.42-.63,10.1,10.1,0,0,1-2.36-2,11.34,11.34,0,0,1-1.77-2.52,5.73,5.73,0,0,1-.53-1.45A1.62,1.62,0,0,1,206.57,62.55Zm0,0a1.61,1.61,0,0,0-.23,1.46,5.64,5.64,0,0,0,.55,1.43,11.53,11.53,0,0,0,1.78,2.49A10.23,10.23,0,0,0,211,69.86a5.58,5.58,0,0,0,1.4.6,2.68,2.68,0,0,0,1.48.08,7.68,7.68,0,0,0,2.46-1.76,29.8,29.8,0,0,0,2.07-2.27,58.73,58.73,0,0,0,3.67-4.92,4.07,4.07,0,0,0,.7-1.31,3.69,3.69,0,0,0,0-1.48,6,6,0,0,0-1.27-2.71,5.26,5.26,0,0,0-2.49-1.65,3.53,3.53,0,0,0-.73-.17,1.17,1.17,0,0,0-.72,0,7.24,7.24,0,0,0-1.37.67,51.62,51.62,0,0,0-5,3.56A55.62,55.62,0,0,0,206.57,62.55Z"/><path class="cls-1" d="M223.07,60.91c-1.44.71-3.6-.76-4.92-2.59-1.72-2.39-1.13-4.51.15-5.07.84-.37,3.25.12,4.57,2.81C223.83,58,224.22,60.34,223.07,60.91Z"/><path class="cls-2" d="M217.5,56c-1,3-2.68,11.66-1.4,15.35.86,2.46,2.81,2.11,3.91.57s6-13.43,5.09-16S218.31,53.51,217.5,56Z"/><path class="cls-5" d="M217.5,56a44.09,44.09,0,0,0-1.26,5.69,39,39,0,0,0-.53,5.81,14,14,0,0,0,.23,2.89,3.59,3.59,0,0,0,1.31,2.43,2,2,0,0,0,2.46-.69,13.71,13.71,0,0,0,1.36-2.54q1.2-2.66,2.2-5.4a42.07,42.07,0,0,0,1.67-5.58,11.62,11.62,0,0,0,.21-1.44,2.78,2.78,0,0,0-.19-1.4,3.27,3.27,0,0,0-2.34-1.51,6.37,6.37,0,0,0-2.88.05A3,3,0,0,0,217.5,56Zm0,0a3,3,0,0,1,2.23-1.72,6.46,6.46,0,0,1,2.9-.08A3.35,3.35,0,0,1,225,55.73a2.88,2.88,0,0,1,.22,1.45,9.92,9.92,0,0,1-.2,1.45,40.51,40.51,0,0,1-1.61,5.62c-.65,1.84-1.36,3.66-2.16,5.44a12.29,12.29,0,0,1-1.42,2.58,2.9,2.9,0,0,1-1.23.86,1.72,1.72,0,0,1-1.48-.15,3.72,3.72,0,0,1-1.37-2.56,15.11,15.11,0,0,1-.21-2.92,39.06,39.06,0,0,1,.6-5.82A43.75,43.75,0,0,1,217.5,56Z"/><path class="cls-1" d="M212.22,65.13c-1.19,1.28-4.56.65-6.83-1.3-3.18-2.73-3.7-5.15-3-6.49.5-.93,3.72-1.82,7.44,1.36C212.85,61.26,213.16,64.12,212.22,65.13Z"/><path class="cls-2" d="M203.43,56.92c2.06-2.74,8.85-9.81,10.29-9.85,4.15-.11,6.23,4.22,5.52,6-.41,1.06-5.35,10.75-8,11C207.35,64.42,202.16,58.63,203.43,56.92Z"/><path class="cls-5" d="M203.43,56.92a59.51,59.51,0,0,1,4-4.64A51.23,51.23,0,0,1,212,48a8,8,0,0,1,1.28-.87A1.23,1.23,0,0,1,214,47a5.12,5.12,0,0,1,.78.06,5.51,5.51,0,0,1,2.78,1.33,6.27,6.27,0,0,1,1.7,2.59,3.89,3.89,0,0,1,.22,1.56A4.36,4.36,0,0,1,219,54a61.54,61.54,0,0,1-3.06,5.35c-.56.86-1.14,1.71-1.79,2.52A7.69,7.69,0,0,1,211.83,64a2.79,2.79,0,0,1-1.54.11,6.25,6.25,0,0,1-1.49-.44A10.4,10.4,0,0,1,206.19,62a11.79,11.79,0,0,1-2.08-2.27,5.71,5.71,0,0,1-.72-1.36A1.64,1.64,0,0,1,203.43,56.92Zm0,0a1.64,1.64,0,0,0,0,1.48,5.52,5.52,0,0,0,.73,1.35A11.32,11.32,0,0,0,206.23,62a10.29,10.29,0,0,0,2.61,1.6,6.22,6.22,0,0,0,1.46.41,2.65,2.65,0,0,0,1.48-.12A7.47,7.47,0,0,0,214,61.8a27.58,27.58,0,0,0,1.75-2.52,61.12,61.12,0,0,0,3-5.36,4,4,0,0,0,.51-1.39,3.68,3.68,0,0,0-.19-1.47,5.89,5.89,0,0,0-1.62-2.52,5.21,5.21,0,0,0-2.68-1.31,3.81,3.81,0,0,0-.75-.07,1.15,1.15,0,0,0-.71.13,7.53,7.53,0,0,0-1.26.85,49.49,49.49,0,0,0-4.5,4.19A57.63,57.63,0,0,0,203.43,56.92Z"/><path class="cls-1" d="M219.58,53.11c-1.34.9-3.67-.27-5.22-1.91-2-2.15-1.72-4.33-.52-5.05.78-.47,3.24-.31,4.9,2.18C220,50.14,220.64,52.4,219.58,53.11Z"/><path class="cls-2" d="M213.51,50.61c1.23,3,5.56,10.61,8.94,12.57,2.25,1.31,3.5-.22,3.34-2.11s-4.17-14.13-6.54-15.44S212.51,48.2,213.51,50.61Z"/><path class="cls-5" d="M213.51,50.61a44.55,44.55,0,0,0,2.75,5.15,37.83,37.83,0,0,0,3.38,4.75,13.77,13.77,0,0,0,2.06,2.05,3.56,3.56,0,0,0,2.58,1,2,2,0,0,0,1.41-2.12,13.45,13.45,0,0,0-.62-2.82c-.54-1.86-1.16-3.71-1.84-5.53a40.84,40.84,0,0,0-2.37-5.32,10.61,10.61,0,0,0-.78-1.23,2.79,2.79,0,0,0-1.05-.94,3.27,3.27,0,0,0-2.76.38,6.2,6.2,0,0,0-2.16,1.91A3,3,0,0,0,213.51,50.61Zm0,0a3,3,0,0,1,.58-2.75,6.29,6.29,0,0,1,2.15-2,3.32,3.32,0,0,1,2.82-.4,2.77,2.77,0,0,1,1.11,1,10.9,10.9,0,0,1,.8,1.24A41.67,41.67,0,0,1,223.4,53q1.07,2.73,1.91,5.53a13.25,13.25,0,0,1,.6,2.89,3,3,0,0,1-.38,1.45,1.74,1.74,0,0,1-1.22.86,3.78,3.78,0,0,1-2.71-1.06,14.54,14.54,0,0,1-2.06-2.09,38.74,38.74,0,0,1-3.33-4.8A43.13,43.13,0,0,1,213.51,50.61Z"/><path class="cls-1" d="M207.53,57.74c-.81,1.55-4.22,1.83-6.92.55-3.79-1.79-4.94-4-4.6-5.46.23-1,3.1-2.74,7.53-.66C207.12,53.84,208.18,56.52,207.53,57.74Z"/><path class="cls-2" d="M196.89,52.15c1.25-3.19,5.93-11.8,7.31-12.22,4-1.21,7.12,2.41,6.92,4.34-.12,1.14-2.32,11.8-4.76,12.7C202.65,58.35,196.11,54.14,196.89,52.15Z"/><path class="cls-5" d="M196.89,52.15a60,60,0,0,1,2.67-5.54,51.32,51.32,0,0,1,3.18-5.28,8,8,0,0,1,1-1.18,1.34,1.34,0,0,1,.71-.36,3.91,3.91,0,0,1,.76-.14,5.51,5.51,0,0,1,3,.54,6.19,6.19,0,0,1,2.32,2.05,4,4,0,0,1,.63,1.44,4.31,4.31,0,0,1-.12,1.57,58,58,0,0,1-1.53,6,27.17,27.17,0,0,1-1.06,2.9,7.7,7.7,0,0,1-1.63,2.62,2.9,2.9,0,0,1-1.46.52,6.18,6.18,0,0,1-1.55,0,10.07,10.07,0,0,1-2.95-.89,11.42,11.42,0,0,1-2.61-1.63,5.58,5.58,0,0,1-1-1.12A1.62,1.62,0,0,1,196.89,52.15Zm0,0a1.62,1.62,0,0,0,.36,1.43,6.19,6.19,0,0,0,1.06,1.11,11.5,11.5,0,0,0,2.62,1.6,10.37,10.37,0,0,0,2.93.85,6.44,6.44,0,0,0,1.52,0,2.73,2.73,0,0,0,1.4-.51,7.55,7.55,0,0,0,1.57-2.58,29.11,29.11,0,0,0,1-2.89,58.37,58.37,0,0,0,1.46-6,4,4,0,0,0,.14-1.48,3.64,3.64,0,0,0-.58-1.36,6,6,0,0,0-2.23-2,5.23,5.23,0,0,0-2.93-.55,3.28,3.28,0,0,0-.75.13,1.09,1.09,0,0,0-.64.32,6.94,6.94,0,0,0-1,1.15,49.9,49.9,0,0,0-3.22,5.23A55.29,55.29,0,0,0,196.89,52.15Z"/><path class="cls-1" d="M211.44,44.2c-1.05,1.22-3.6.71-5.53-.46-2.52-1.53-2.81-3.72-1.85-4.73.63-.66,3-1.16,5.31.8C211,41.24,212.28,43.23,211.44,44.2Z"/><path class="cls-2" d="M204.93,43.4c2,2.51,8.17,8.75,11.95,9.75,2.52.66,3.32-1.15,2.66-2.93s-7.76-12.51-10.39-13.15S203.33,41.34,204.93,43.4Z"/><path class="cls-5" d="M204.93,43.4a43.42,43.42,0,0,0,4,4.23,38.82,38.82,0,0,0,4.51,3.69A15.06,15.06,0,0,0,216,52.75a3.6,3.6,0,0,0,2.75.27,2,2,0,0,0,.8-2.43,12.44,12.44,0,0,0-1.35-2.54c-1-1.66-2.1-3.27-3.24-4.85a42,42,0,0,0-3.69-4.5,11,11,0,0,0-1.07-1,2.75,2.75,0,0,0-1.27-.62,3.24,3.24,0,0,0-2.56,1.09,6.18,6.18,0,0,0-1.57,2.42A3,3,0,0,0,204.93,43.4Zm0,0a3,3,0,0,1-.17-2.8,6.35,6.35,0,0,1,1.55-2.46A3.37,3.37,0,0,1,208.93,37a2.84,2.84,0,0,1,1.32.63,11.33,11.33,0,0,1,1.1,1,40.08,40.08,0,0,1,3.75,4.48c1.16,1.57,2.27,3.17,3.31,4.83a13.19,13.19,0,0,1,1.34,2.62,2.83,2.83,0,0,1,0,1.5,1.76,1.76,0,0,1-1,1.15,3.78,3.78,0,0,1-2.89-.3,14.59,14.59,0,0,1-2.54-1.47,39.11,39.11,0,0,1-4.48-3.74A43.47,43.47,0,0,1,204.93,43.4Z"/><path class="cls-1" d="M200.53,55.74c-.38,1.76-3.69,3-6.74,2.48-4.27-.73-6-2.59-6.1-4.16C187.64,53,190,50.47,195,51.3,199,52,200.83,54.34,200.53,55.74Z"/><path class="cls-2" d="M188.38,53.14c.36-3.52,2.62-13.4,3.88-14.2,3.61-2.31,7.75.43,8.09,2.4.2,1.17,1,12.38-1.2,14C195.84,57.7,188.16,55.34,188.38,53.14Z"/><path class="cls-5" d="M188.38,53.14a60.33,60.33,0,0,1,1.12-6.26,52,52,0,0,1,1.7-6.13,8.75,8.75,0,0,1,.67-1.46,1.38,1.38,0,0,1,.6-.55,4,4,0,0,1,.72-.35,5.63,5.63,0,0,1,3.17-.31,6.4,6.4,0,0,1,2.88,1.39,3.91,3.91,0,0,1,1,1.26,4.26,4.26,0,0,1,.32,1.59,58.89,58.89,0,0,1,.14,6.37,30.72,30.72,0,0,1-.24,3.18,8,8,0,0,1-.9,3.06,2.94,2.94,0,0,1-1.31.92,7,7,0,0,1-1.55.41,10.59,10.59,0,0,1-3.18-.07,12,12,0,0,1-3-.89,6.52,6.52,0,0,1-1.36-.83A1.7,1.7,0,0,1,188.38,53.14Zm0,0a1.68,1.68,0,0,0,.76,1.32,6,6,0,0,0,1.36.81,12.06,12.06,0,0,0,3.05.86,10.46,10.46,0,0,0,3.16,0,6.49,6.49,0,0,0,1.51-.41,2.84,2.84,0,0,0,1.25-.89,7.79,7.79,0,0,0,.85-3,30.5,30.5,0,0,0,.22-3.16c0-2.12,0-4.24-.21-6.35a4.18,4.18,0,0,0-.28-1.51,3.91,3.91,0,0,0-1-1.2,6.27,6.27,0,0,0-2.78-1.37,5.55,5.55,0,0,0-3.07.27,3.85,3.85,0,0,0-.71.34,1.16,1.16,0,0,0-.55.5,7.1,7.1,0,0,0-.67,1.42,51.26,51.26,0,0,0-1.76,6.1A60.35,60.35,0,0,0,188.38,53.14Z"/><path class="cls-1" d="M200.66,41.18c-.71,1.5-3.4,1.71-5.64,1.08-2.94-.83-3.83-2.92-3.15-4.2.44-.83,2.7-2,5.5-.67C199.41,38.35,201.22,40,200.66,41.18Z"/><path class="cls-2" d="M200.21,40.16c1.47-2.94,4.53-11.5,3.78-15.47-.5-2.65-2.54-2.59-3.91-1.18s-8.22,12.8-7.64,15.53S199,42.58,200.21,40.16Z"/><path class="cls-5" d="M200.21,40.16a43.43,43.43,0,0,0,2.16-5.62,39.64,39.64,0,0,0,1.44-5.85,15.78,15.78,0,0,0,.21-3,3.71,3.71,0,0,0-1-2.69,1.58,1.58,0,0,0-1.34-.32,2.79,2.79,0,0,0-1.28.65,12.49,12.49,0,0,0-1.78,2.39q-1.64,2.52-3.08,5.18A42.13,42.13,0,0,0,193,36.35a10.78,10.78,0,0,0-.43,1.44,2.68,2.68,0,0,0,0,1.46,3.41,3.41,0,0,0,2.15,1.91,6.62,6.62,0,0,0,3,.38,4.56,4.56,0,0,0,1.45-.37A2.53,2.53,0,0,0,200.21,40.16Zm0,0a2.55,2.55,0,0,1-1.09,1,4.52,4.52,0,0,1-1.45.39,6.44,6.44,0,0,1-3-.36,3.45,3.45,0,0,1-2.22-1.93,2.87,2.87,0,0,1,0-1.51,12.19,12.19,0,0,1,.42-1.46,43.86,43.86,0,0,1,2.51-5.49c.95-1.78,2-3.53,3-5.23a13,13,0,0,1,1.85-2.42,2.94,2.94,0,0,1,1.38-.68,1.77,1.77,0,0,1,1.49.37,3.8,3.8,0,0,1,1,2.83,14.54,14.54,0,0,1-.24,3,39.53,39.53,0,0,1-1.5,5.85A44.37,44.37,0,0,1,200.21,40.16Z"/><path class="cls-1" d="M201.34,75.55c-1.64.61-4.36-1.47-5.51-4.22-1.62-3.87-1-6.27.24-7.15.86-.61,4.14,0,6,4.56C203.64,72.38,202.64,75.07,201.34,75.55Z"/><path class="cls-2" d="M202.83,73.84c2-2.8,6.91-10.43,6.54-13s-2-4.55-3.42-4.46-9.36,6.48-9.9,8.92S201.13,76.17,202.83,73.84Z"/><path class="cls-5" d="M202.83,73.84C204,72.25,205,70.62,206,69a40.76,40.76,0,0,0,2.65-5.18,7.35,7.35,0,0,0,.66-2.78,6.76,6.76,0,0,0-.88-2.71,3.58,3.58,0,0,0-2.07-1.8c-.46-.14-.86.14-1.29.36a13.86,13.86,0,0,0-1.21.78,41.46,41.46,0,0,0-4.52,3.65,23.2,23.2,0,0,0-2,2.08,7.83,7.83,0,0,0-.85,1.16,2,2,0,0,0-.37,1.34,8.66,8.66,0,0,0,.89,2.73,18.4,18.4,0,0,0,1.47,2.5,13.31,13.31,0,0,0,1.88,2.22,4.56,4.56,0,0,0,1.19.81,1.45,1.45,0,0,0,.71.11A1,1,0,0,0,202.83,73.84Zm0,0a1.06,1.06,0,0,1-.6.39,1.43,1.43,0,0,1-.71-.1,4.5,4.5,0,0,1-1.21-.81,13.35,13.35,0,0,1-1.91-2.2,18.59,18.59,0,0,1-1.5-2.5,8.68,8.68,0,0,1-.94-2.76,2.17,2.17,0,0,1,.38-1.42,7.59,7.59,0,0,1,.85-1.19,21.18,21.18,0,0,1,2-2.12,40.22,40.22,0,0,1,4.5-3.72c.4-.27.81-.54,1.24-.78a6.9,6.9,0,0,1,.67-.32,1.27,1.27,0,0,1,.77,0,3.77,3.77,0,0,1,2.2,1.92,6.9,6.9,0,0,1,.87,2.79,7.67,7.67,0,0,1-.71,2.84A41.47,41.47,0,0,1,206,69C205,70.64,204,72.27,202.83,73.84Z"/><path class="cls-1" d="M209.45,61.63c-.65,1.21-3.2.7-4.67-.69s-2-3.4-1-4.21a3.4,3.4,0,0,1,4.54,1.05C209.58,59.31,210,60.59,209.45,61.63Z"/><path class="cls-2" d="M209.09,61c1.24-.76,1.76-8.52,1.15-10.43s-2.53-2.93-3.48-1.88-2.89,7.93-2.72,9C204.23,59,207.35,62.1,209.09,61Z"/><path class="cls-5" d="M209.09,61a3.5,3.5,0,0,0,.79-1.76,18,18,0,0,0,.3-1.95,28.54,28.54,0,0,0,.13-3.92c-.08-1.3-.08-2.66-.83-3.63a2.73,2.73,0,0,0-1.35-1,1,1,0,0,0-1.26.48,23.09,23.09,0,0,0-1.42,3.57,38.43,38.43,0,0,0-1.1,3.76c-.07.32-.13.64-.17.95a1.53,1.53,0,0,0,.23.86,6.06,6.06,0,0,0,1.19,1.53A5.77,5.77,0,0,0,207.2,61,2.1,2.1,0,0,0,209.09,61Zm0,0a2.12,2.12,0,0,1-1.9,0A6.46,6.46,0,0,1,205.53,60a6.76,6.76,0,0,1-1.33-1.49,1.7,1.7,0,0,1-.32-1,8.23,8.23,0,0,1,.1-1,33.77,33.77,0,0,1,.85-3.87,18.62,18.62,0,0,1,1.4-3.78,1.8,1.8,0,0,1,.92-.79,2,2,0,0,1,1.2,0A3.44,3.44,0,0,1,210,49.4a4.23,4.23,0,0,1,.63,2,16.72,16.72,0,0,1,0,2,34.58,34.58,0,0,1-.39,3.94c-.1.65-.23,1.29-.38,1.93A3.5,3.5,0,0,1,209.09,61Z"/><path class="cls-1" d="M156.61,106.9s4.89,3.22,6.86,7.32,5.6,11.59,5.6,11.59-17.33,7.82-19.23,7.55-10.51-11.07-9.63-12.92S156.61,106.9,156.61,106.9Z"/><path class="cls-2" d="M159.7,132.54c7.74-1,35.81-30.17,35.09-36-.25-2-7.91-.59-12.7-3.85-4.52-3.07-6.46-11.91-9-11.23-5.17,1.4-20.22,20.91-21.87,25S151.46,133.58,159.7,132.54Z"/><g class="cls-7"><path d="M169.68,116.88a.89.89,0,0,1-.57-1.19.87.87,0,1,1,.57,1.19Zm.59-1.41a.65.65,0,0,0-.76.39.66.66,0,1,0,1.21.51A.66.66,0,0,0,170.27,115.47Z"/><path d="M174.8,111.48a.88.88,0,1,1,1-.51A.89.89,0,0,1,174.8,111.48Zm.59-1.42a.67.67,0,0,0-.76.4.66.66,0,0,0,.26.82.67.67,0,0,0,1-.31A.68.68,0,0,0,175.39,110.06Z"/><path d="M179.8,106.24a.88.88,0,1,1,.67-1.61.88.88,0,0,1-.67,1.61Zm.59-1.41a.65.65,0,0,0-.76.39.66.66,0,1,0,.76-.39Z"/><path d="M184.43,101.4a.88.88,0,1,1,.67-1.61.88.88,0,0,1-.67,1.61ZM185,100a.67.67,0,0,0-.76.4.65.65,0,1,0,1.21.5A.66.66,0,0,0,185,100Z"/><path d="M172.45,116.77a33,33,0,0,0,4.71-3.87c1.46-1.41,2.84-2.9,4.19-4.43s2.61-3.12,3.85-4.72l1.8-2.45,1.73-2.51-3.8,4.75c-1.28,1.56-2.56,3.14-3.91,4.65s-2.69,3-4.1,4.47q-1,1.09-2.16,2.13A27.37,27.37,0,0,1,172.45,116.77Z"/></g><path class="cls-2" d="M151.87,109.84c2.69,4,1,23.69-3.79,26.18S112.44,118.23,111,115s-5.71-22.7-2.27-22.56S146.33,101.63,151.87,109.84Z"/><g class="cls-7"><path d="M114,109.89a.88.88,0,1,1,.78.86A.87.87,0,0,1,114,109.89Zm1.52.18a.67.67,0,1,0-.74.68A.66.66,0,0,0,115.55,110.07Z"/><path d="M121.23,114.17a.88.88,0,1,1,.78.86A.88.88,0,0,1,121.23,114.17Zm1.52.18a.66.66,0,0,0-1.3-.15.66.66,0,1,0,1.3.15Z"/><path d="M128,118.51a.88.88,0,1,1,.78.86A.88.88,0,0,1,128,118.51Zm1.52.17a.66.66,0,0,0-.59-.62.66.66,0,1,0-.15,1.31A.67.67,0,0,0,129.53,118.68Z"/><path d="M134.38,122.2a.88.88,0,1,1,.78.86A.88.88,0,0,1,134.38,122.2Zm1.52.18a.67.67,0,0,0-1.31-.15.67.67,0,1,0,1.31.15Z"/><path d="M141,125.64a.88.88,0,1,1,.78.86A.89.89,0,0,1,141,125.64Zm1.52.17a.66.66,0,0,0-.59-.62.67.67,0,0,0-.71.47.66.66,0,1,0,1.3.15Z"/><path d="M147.4,129a.88.88,0,0,1,1-.88.89.89,0,0,1,.75,1.08.88.88,0,0,1-1.73-.2Zm1.52.17a.67.67,0,0,0-.59-.62.65.65,0,1,0-.15,1.3A.67.67,0,0,0,148.92,129.17Z"/><path d="M111.54,111.71q4.18,2.94,8.47,5.71t8.65,5.42c2.93,1.73,5.86,3.47,8.86,5.08s6,3.17,9.15,4.55c-3-1.53-6-3.17-9-4.84s-5.89-3.4-8.8-5.16-5.8-3.54-8.69-5.33S114.41,113.54,111.54,111.71Z"/></g><path class="cls-1" d="M109.63,91.5c5.2-.47,9.9,5.28,11.67,10.47,2.72,8-.13,26.9-5.43,26.81S103.25,92.08,109.63,91.5Z"/><path class="cls-1" d="M107.38,149.61c-.06,2.07-2,30.06-3.93,31.91s-9.92,5.25-16,6.4c-8.06,1.53-19.07-.41-23.38-2.93S52.51,154.17,53.71,153.2s26.83-8,36.33-7.17S107.43,147.74,107.38,149.61Z"/><path class="cls-5" d="M103.23,180.71a88,88,0,0,1-9.33,3.93A34.57,34.57,0,0,1,84,186.77a52.72,52.72,0,0,1-10.06-.61,99,99,0,0,1-9.75-2,78.4,78.4,0,0,0,9.71,2.14A52.2,52.2,0,0,0,84,187a34.66,34.66,0,0,0,10-2.22A71.71,71.71,0,0,0,103.23,180.71Z"/><path class="cls-5" d="M103.66,178.43a89.68,89.68,0,0,1-9.73,4.1,36.35,36.35,0,0,1-10.33,2.23,54.63,54.63,0,0,1-10.48-.65A101.17,101.17,0,0,1,63,182a82.56,82.56,0,0,0,10.13,2.23A55.72,55.72,0,0,0,83.6,185,36.25,36.25,0,0,0,94,182.67,74.52,74.52,0,0,0,103.66,178.43Z"/><path class="cls-5" d="M104,176.3a91.19,91.19,0,0,1-10.07,4.25,37.58,37.58,0,0,1-10.7,2.31,56.92,56.92,0,0,1-10.86-.67A105.57,105.57,0,0,1,61.85,180a84.73,84.73,0,0,0,10.49,2.31,57.2,57.2,0,0,0,10.89.74A37.73,37.73,0,0,0,94,180.69,75.85,75.85,0,0,0,104,176.3Z"/><path class="cls-5" d="M103.66,174.39a91.19,91.19,0,0,1-10.07,4.25A37.51,37.51,0,0,1,82.89,181,57,57,0,0,1,72,180.28a102.08,102.08,0,0,1-10.52-2.15A84.17,84.17,0,0,0,72,180.44a57.25,57.25,0,0,0,10.9.74,37.33,37.33,0,0,0,10.76-2.4A75.85,75.85,0,0,0,103.66,174.39Z"/><path class="cls-5" d="M104,172.14a95.58,95.58,0,0,1-10.42,4.39,38.81,38.81,0,0,1-11.09,2.4,60.16,60.16,0,0,1-11.24-.69A106.65,106.65,0,0,1,60.37,176a86.52,86.52,0,0,0,10.85,2.39,59.6,59.6,0,0,0,11.28.77,39,39,0,0,0,11.15-2.48A81.23,81.23,0,0,0,104,172.14Z"/><path class="cls-5" d="M104.58,169.66a97.16,97.16,0,0,1-10.7,4.52,39.88,39.88,0,0,1-11.38,2.46A60.89,60.89,0,0,1,71,175.93a112.6,112.6,0,0,1-11.19-2.3,91.35,91.35,0,0,0,11.15,2.45,60.35,60.35,0,0,0,11.59.79,40.38,40.38,0,0,0,11.44-2.55A83.57,83.57,0,0,0,104.58,169.66Z"/><path class="cls-5" d="M105,167.3A100.78,100.78,0,0,1,93.92,172a41.51,41.51,0,0,1-11.83,2.55,62.13,62.13,0,0,1-12-.74,109.23,109.23,0,0,1-11.62-2.39A92.66,92.66,0,0,0,70.06,174a62.57,62.57,0,0,0,12,.82A41.67,41.67,0,0,0,94,172.14,87.17,87.17,0,0,0,105,167.3Z"/><path class="cls-5" d="M105.27,165.05a104.42,104.42,0,0,1-11.42,4.82,42.26,42.26,0,0,1-12.14,2.63,64.82,64.82,0,0,1-12.32-.76,117.83,117.83,0,0,1-11.93-2.46,95.21,95.21,0,0,0,11.89,2.61,64.29,64.29,0,0,0,12.35.84A42.49,42.49,0,0,0,93.91,170,88.5,88.5,0,0,0,105.27,165.05Z"/><path class="cls-5" d="M105.63,162.55A105.16,105.16,0,0,1,94,167.43a44,44,0,0,1-12.34,2.66,66.09,66.09,0,0,1-12.52-.74A116,116,0,0,1,57,166.91a98.16,98.16,0,0,0,12.08,2.6,66.32,66.32,0,0,0,12.55.81,44.13,44.13,0,0,0,12.41-2.75A90.87,90.87,0,0,0,105.63,162.55Z"/><path class="cls-5" d="M105.2,160.21a106.89,106.89,0,0,1-11.61,4.87,43.71,43.71,0,0,1-12.35,2.66A66.14,66.14,0,0,1,68.72,167a121.45,121.45,0,0,1-12.12-2.44,100.43,100.43,0,0,0,12.08,2.59,66.37,66.37,0,0,0,12.56.82,44,44,0,0,0,12.41-2.76A90.69,90.69,0,0,0,105.2,160.21Z"/><path class="cls-5" d="M104.78,157.86a105.1,105.1,0,0,1-11.62,4.87,43.65,43.65,0,0,1-12.35,2.67,66.87,66.87,0,0,1-12.51-.74,118.69,118.69,0,0,1-12.12-2.44,96.33,96.33,0,0,0,12.08,2.59,66.32,66.32,0,0,0,12.55.82,43.8,43.8,0,0,0,12.41-2.76A89.42,89.42,0,0,0,104.78,157.86Z"/><path class="cls-5" d="M104.35,155.51a105,105,0,0,1-11.61,4.88,43.71,43.71,0,0,1-12.35,2.66,66.09,66.09,0,0,1-12.52-.74,116,116,0,0,1-12.12-2.44,98.56,98.56,0,0,0,12.08,2.6,66.37,66.37,0,0,0,12.56.81,44.29,44.29,0,0,0,12.41-2.75A90.74,90.74,0,0,0,104.35,155.51Z"/><path class="cls-5" d="M105.31,152.72a110.69,110.69,0,0,1-12.08,5.06,45,45,0,0,1-12.84,2.77,68.77,68.77,0,0,1-13-.76,122.34,122.34,0,0,1-12.61-2.54A104.14,104.14,0,0,0,67.33,160a69.16,69.16,0,0,0,13.06.84,45.52,45.52,0,0,0,12.9-2.86A94.58,94.58,0,0,0,105.31,152.72Z"/><path class="cls-5" d="M105.31,150.17a108.81,108.81,0,0,1-12.08,5.07A45.71,45.71,0,0,1,80.39,158a69.61,69.61,0,0,1-13-.76,125,125,0,0,1-12.61-2.54,102.23,102.23,0,0,0,12.56,2.69,68.34,68.34,0,0,0,13.06.85,45.86,45.86,0,0,0,12.9-2.86A94.63,94.63,0,0,0,105.31,150.17Z"/><path class="cls-5" d="M105.31,147.63a108.81,108.81,0,0,1-12.08,5.07,45.71,45.71,0,0,1-12.84,2.77,68.78,68.78,0,0,1-13-.77,125,125,0,0,1-12.61-2.53,104.12,104.12,0,0,0,12.56,2.69,68.34,68.34,0,0,0,13.06.85,45.86,45.86,0,0,0,12.9-2.86A94.63,94.63,0,0,0,105.31,147.63Z"/><path class="cls-2" d="M47.8,162.35c2.16,5.23,9.27,10.52,12.6,11.15,16.48,3.11,20.49-25.23,29.85-23.41,8,1.55,13.69,18,18.16,18.24,0,0,3.43-2.07,4.14-5.29,1-4.67.55-13.51,2.51-21.71.9-3.76,2.79-6.22,3.16-10.28,1.14-12.59.27-28.08-3.32-34.28-3.26-5.62-8.51-5.39-17.13-8.06-3.6-1.12-5.08-6.17-5.41-6.63S87,84.62,83.87,84.89s-17.27-3.7-18.13-4.06S64.05,85.11,63.13,86s-7.27,3.44-7.59,3.58c-8.79,3.08-19.08,6.16-21.06,11.72C29.9,114.14,46,157.94,47.8,162.35Z"/><g class="cls-7"><path d="M45.69,125.49a1.24,1.24,0,1,1-.24,1.62A1.25,1.25,0,0,1,45.69,125.49Zm1.17,1.81a.93.93,0,1,0-1.41-.19A.94.94,0,0,0,46.86,127.3Z"/><path d="M47.84,135.75a1.24,1.24,0,1,1-.24,1.61A1.23,1.23,0,0,1,47.84,135.75ZM49,137.56a.93.93,0,1,0-1.4-.2A.94.94,0,0,0,49,137.56Z"/><path d="M49.9,145.72a1.24,1.24,0,1,1-.24,1.62A1.25,1.25,0,0,1,49.9,145.72Zm1.17,1.81a.93.93,0,1,0-1.41-.19A.94.94,0,0,0,51.07,147.53Z"/><path d="M51.79,155a1.24,1.24,0,1,1-.24,1.62A1.25,1.25,0,0,1,51.79,155ZM53,156.76a.94.94,0,0,0,.15-1.19.93.93,0,1,0-.15,1.19Z"/><path d="M54.4,164.41a1.24,1.24,0,1,1-.24,1.61A1.23,1.23,0,0,1,54.4,164.41Zm1.16,1.81a.93.93,0,1,0-1.4-.2A.93.93,0,0,0,55.56,166.22Z"/><path d="M42.39,124.52A90.46,90.46,0,0,0,44,136c.74,3.8,1.61,7.56,2.54,11.31s2,7.47,3.09,11.17l1.7,5.54,1.82,5.5-3.08-11.17c-1-3.72-2-7.44-2.94-11.19s-1.84-7.49-2.68-11.25c-.42-1.88-.8-3.77-1.16-5.67S42.59,126.44,42.39,124.52Z"/></g><path class="cls-1" d="M40,95.29c-5.22.24-9.09,6.58-10.14,12-1.61,8.27,3.78,26.63,9,25.82S46.34,95,40,95.29Z"/><g class="cls-3"><path d="M84.38,97.7c.9,4.15,1.65,8.33,2.35,12.52s1.27,8.41,1.73,12.65c.21,2.11.29,4.27.3,6.39s0,4.26-.05,6.38L88.49,142c-.13,2.12-.22,4.24-.4,6.36L88,142l0-6.37c-.08-4.24,0-8.48-.48-12.67s-1-8.42-1.48-12.63S84.88,101.92,84.38,97.7Z"/><path d="M112.68,139.19a6.33,6.33,0,0,1-2.42,1.06,23.14,23.14,0,0,1-2.61.51,26.65,26.65,0,0,1-5.31.33A65.71,65.71,0,0,1,92,139.19c1.76.07,3.5.2,5.24.38s3.47.38,5.19.52a10.73,10.73,0,0,0,1.26.06l1.29,0c.87,0,1.74-.08,2.6-.12s1.74-.11,2.59-.22A7.24,7.24,0,0,0,112.68,139.19Z"/><path d="M80.32,139.73A33.77,33.77,0,0,1,74,142.61a22,22,0,0,1-3.42.88,30,30,0,0,1-3.52.3c-2.34,0-4.66,0-7-.22a44.87,44.87,0,0,1-6.91-1c1.16.1,2.32.11,3.47.13l3.47.06c2.31,0,4.62,0,6.92,0a32,32,0,0,0,3.41-.23,30,30,0,0,0,3.34-.68c1.11-.29,2.21-.63,3.31-1S79.23,140.13,80.32,139.73Z"/></g><path class="cls-2" d="M105.75,176.81c.77.36,2.33,10.05,2,11.33s-5.89,9.46-7.44,11.7-8.73,7.49-9.46,8-9.37.64-10.47,0S69.37,196,67.13,194.24s-7.52-5.36-7.8-5.91-1.64-10-1.69-10.69,6.8.24,8.53,1.24,14.68,7.89,21.53,7.34,14.58-6.44,15.72-7.72S105,176.45,105.75,176.81Z"/><ellipse class="cls-6" cx="32.68" cy="106.95" rx="7.94" ry="9.44"/><path class="cls-1" d="M61.2,190s-1.84,7.72-5.21,10.37-9.51,7.55-9.51,7.55-9.94-12.69-10.22-14.66,5.85-12,10.55-11.58C48.9,181.82,61.2,190,61.2,190Z"/><path class="cls-2" d="M41.68,202.45c-1-4,9.14-16.25,13.51-16.78,1.45-.17,21.53,10.29,21.53,14s-18.34,21.43-22.35,19.22S42.23,204.54,41.68,202.45Z"/><path class="cls-5" d="M41.68,202.45a5.45,5.45,0,0,1,.51-3,19.73,19.73,0,0,1,1.43-2.78,38.19,38.19,0,0,1,3.73-5,31.9,31.9,0,0,1,4.52-4.33,9.53,9.53,0,0,1,2.73-1.53,2.79,2.79,0,0,1,.39-.1,1.1,1.1,0,0,1,.41,0,5.94,5.94,0,0,1,.75.23c.49.18,1,.39,1.45.6a104.47,104.47,0,0,1,11,5.94A54.88,54.88,0,0,1,73.79,196a14.62,14.62,0,0,1,2.29,2.16,3,3,0,0,1,.74,1.43,3.21,3.21,0,0,1-.44,1.56,28,28,0,0,1-3.78,5c-1.39,1.56-2.87,3-4.39,4.47s-3.11,2.8-4.74,4.1a35.51,35.51,0,0,1-5.2,3.49,7.85,7.85,0,0,1-3,1,2.24,2.24,0,0,1-1.47-.54,10.47,10.47,0,0,1-1.22-1A41,41,0,0,1,48.44,213c-1.28-1.65-2.5-3.35-3.66-5.08-.57-.87-1.14-1.75-1.67-2.65A15.21,15.21,0,0,1,41.68,202.45Zm0,0a16.27,16.27,0,0,0,1.44,2.78c.54.89,1.11,1.76,1.69,2.63,1.17,1.73,2.39,3.42,3.68,5.06a40.92,40.92,0,0,0,4.18,4.64,11.28,11.28,0,0,0,1.22,1,2.16,2.16,0,0,0,1.4.51,7.73,7.73,0,0,0,2.92-1,34.5,34.5,0,0,0,5.16-3.51q2.45-1.95,4.71-4.11c1.51-1.43,3-2.92,4.36-4.47a28.45,28.45,0,0,0,3.72-5,2.88,2.88,0,0,0,.42-1.41,2.76,2.76,0,0,0-.68-1.31,14.65,14.65,0,0,0-2.24-2.14,56.6,56.6,0,0,0-5.13-3.57,104,104,0,0,0-11-6c-.47-.22-.95-.43-1.44-.61a6.83,6.83,0,0,0-.73-.23.94.94,0,0,0-.37,0l-.38.09a9.72,9.72,0,0,0-2.7,1.51,30.65,30.65,0,0,0-4.53,4.29,37.27,37.27,0,0,0-3.75,5,19.2,19.2,0,0,0-1.45,2.77A5.41,5.41,0,0,0,41.68,202.45Z"/><path class="cls-1" d="M70.21,206.44c-1.16-1-.74-4,.89-6.05,2.28-2.9,4.39-3.46,5.6-2.88.84.4,1.73,3.21-.92,6.6C73.64,206.85,71.14,207.23,70.21,206.44Z"/><path class="cls-2" d="M77.1,198.4c2.49,1.7,9,7.41,9.05,8.67.26,3.65-3.47,5.64-5.09,5.09-1-.33-9.66-4.31-10-6.58C70.65,202.13,75.55,197.34,77.1,198.4Z"/><path class="cls-5" d="M77.1,198.4a51.06,51.06,0,0,1,4.24,3.38,46.11,46.11,0,0,1,3.9,3.76,7.49,7.49,0,0,1,.82,1.1,1.16,1.16,0,0,1,.17.67,4,4,0,0,1,0,.69,4.82,4.82,0,0,1-1.06,2.5,5.41,5.41,0,0,1-2.21,1.6,3.37,3.37,0,0,1-1.37.25,3.89,3.89,0,0,1-1.33-.4,53.51,53.51,0,0,1-4.82-2.49c-.78-.46-1.55-1-2.28-1.48a7.05,7.05,0,0,1-1.93-1.92,2.55,2.55,0,0,1-.15-1.36,5.49,5.49,0,0,1,.32-1.33A9.11,9.11,0,0,1,72.71,201a10,10,0,0,1,1.92-1.92,5.26,5.26,0,0,1,1.17-.68A1.42,1.42,0,0,1,77.1,198.4Zm0,0a1.45,1.45,0,0,0-1.3,0,5.2,5.2,0,0,0-1.15.7,10.41,10.41,0,0,0-1.89,1.92,9,9,0,0,0-1.3,2.35,3.72,3.72,0,0,0-.15,2.6,6.74,6.74,0,0,0,1.91,1.85,25.71,25.71,0,0,0,2.28,1.44,53.19,53.19,0,0,0,4.83,2.43,3.52,3.52,0,0,0,1.24.4,3.14,3.14,0,0,0,1.28-.22A5.26,5.26,0,0,0,85,210.38a4.65,4.65,0,0,0,1-2.4,3.65,3.65,0,0,0,0-.66,1.09,1.09,0,0,0-.14-.62,6.78,6.78,0,0,0-.8-1.07,41.85,41.85,0,0,0-3.85-3.8A50.92,50.92,0,0,0,77.1,198.4Z"/><path class="cls-1" d="M81.07,212.45c-.84-1.14.1-3.23,1.48-4.66,1.81-1.86,3.74-1.68,4.42-.65.44.67.39,2.83-1.73,4.39C83.69,212.67,81.73,213.36,81.07,212.45Z"/><path class="cls-2" d="M82.43,212.75c.92,2.66,3.53,8.27,6.4,10.17,1.91,1.26,3.09,0,3-1.69s-2.93-12.62-4.94-13.9S81.67,210.58,82.43,212.75Z"/><path class="cls-5" d="M82.43,212.75a33.7,33.7,0,0,0,2,4.54,21.74,21.74,0,0,0,2.78,4.12,8.17,8.17,0,0,0,1.87,1.6,2.43,2.43,0,0,0,1.14.33,1.3,1.3,0,0,0,1-.49,2.71,2.71,0,0,0,.38-2.29c-.14-.81-.33-1.62-.54-2.43q-.59-2.41-1.35-4.79a29.19,29.19,0,0,0-1.85-4.61c-.38-.69-.86-1.53-1.72-1.56a3.09,3.09,0,0,0-2.11,1.11,6.58,6.58,0,0,0-1.37,2.05A3.63,3.63,0,0,0,82.43,212.75Zm0,0a3.66,3.66,0,0,1,.27-2.43,7,7,0,0,1,1.35-2.09,3.14,3.14,0,0,1,2.17-1.15,1.59,1.59,0,0,1,1.12.55,7.28,7.28,0,0,1,.7,1A28.57,28.57,0,0,1,90,213.28q.8,2.37,1.41,4.79c.2.81.38,1.63.52,2.45a2.9,2.9,0,0,1-.46,2.45,1.46,1.46,0,0,1-1.16.54,2.49,2.49,0,0,1-1.22-.37,8.49,8.49,0,0,1-1.89-1.65,22.57,22.57,0,0,1-2.74-4.17A33.76,33.76,0,0,1,82.43,212.75Z"/><path class="cls-1" d="M64.18,212.42c-1.13-1-.6-4,1.09-6,2.38-2.82,4.51-3.31,5.69-2.69.83.43,1.63,3.27-1.13,6.57C67.6,213,65.08,213.25,64.18,212.42Z"/><path class="cls-2" d="M71.34,204.63c2.43,1.78,8.71,7.7,8.75,9,.14,3.65-3.66,5.51-5.26,4.91-.94-.36-9.51-4.63-9.73-6.91C64.77,208.14,69.82,203.51,71.34,204.63Z"/><path class="cls-5" d="M71.34,204.63a51,51,0,0,1,4.12,3.52A44.69,44.69,0,0,1,79.23,212a7.23,7.23,0,0,1,.78,1.12,1.19,1.19,0,0,1,.15.68,4,4,0,0,1,0,.69A4.75,4.75,0,0,1,79,217a5.48,5.48,0,0,1-2.26,1.53,3.59,3.59,0,0,1-1.38.2,3.84,3.84,0,0,1-1.31-.45,51.15,51.15,0,0,1-4.74-2.65,26.07,26.07,0,0,1-2.22-1.56,6.8,6.8,0,0,1-1.87-2,2.68,2.68,0,0,1-.11-1.37,5.94,5.94,0,0,1,.37-1.31,9.19,9.19,0,0,1,1.43-2.31,10.18,10.18,0,0,1,2-1.85A5.07,5.07,0,0,1,70,204.6,1.41,1.41,0,0,1,71.34,204.63Zm0,0a1.42,1.42,0,0,0-1.3,0,5.48,5.48,0,0,0-1.18.66,10.1,10.1,0,0,0-2,1.86,9,9,0,0,0-1.38,2.31A3.68,3.68,0,0,0,65.3,212a6.72,6.72,0,0,0,1.84,1.92c.72.54,1.46,1.05,2.23,1.52,1.54.95,3.13,1.8,4.75,2.59a3.46,3.46,0,0,0,1.22.44,3.18,3.18,0,0,0,1.29-.18,5.18,5.18,0,0,0,2.19-1.44A4.53,4.53,0,0,0,80,214.5a3.6,3.6,0,0,0,.06-.66,1,1,0,0,0-.12-.62,6.74,6.74,0,0,0-.76-1.1,43.12,43.12,0,0,0-3.72-3.93A50.82,50.82,0,0,0,71.34,204.63Z"/><path class="cls-1" d="M74.83,218.8c-.8-1.17.21-3.23,1.64-4.6,1.87-1.8,3.79-1.56,4.44-.51.42.69.29,2.85-1.88,4.34C77.44,219.11,75.46,219.73,74.83,218.8Z"/><path class="cls-2" d="M76.18,219.15c.83,2.68,3.24,8.38,6,10.38,1.87,1.33,3.09.08,3.1-1.59s-2.51-12.71-4.47-14.05S75.49,217,76.18,219.15Z"/><path class="cls-5" d="M76.18,219.15a34.86,34.86,0,0,0,1.89,4.61A23.25,23.25,0,0,0,80.71,228a8.15,8.15,0,0,0,1.82,1.65,2.2,2.2,0,0,0,1.13.37,1.27,1.27,0,0,0,1-.45,2.69,2.69,0,0,0,.46-2.28c-.11-.81-.28-1.63-.46-2.44-.34-1.62-.73-3.24-1.19-4.83a28.28,28.28,0,0,0-1.69-4.67c-.36-.71-.8-1.56-1.66-1.62a3.1,3.1,0,0,0-2.16,1,7,7,0,0,0-1.43,2A3.62,3.62,0,0,0,76.18,219.15Zm0,0a3.65,3.65,0,0,1,.35-2.42,6.74,6.74,0,0,1,1.42-2,3.2,3.2,0,0,1,2.21-1.09,1.59,1.59,0,0,1,1.1.6,6.07,6.07,0,0,1,.66,1.06,28.09,28.09,0,0,1,1.76,4.68q.72,2.38,1.26,4.83c.17.82.32,1.63.43,2.47a2.91,2.91,0,0,1-.54,2.43,1.51,1.51,0,0,1-1.18.5,2.64,2.64,0,0,1-1.2-.41A8.36,8.36,0,0,1,80.61,228,22.54,22.54,0,0,1,78,223.78,33.55,33.55,0,0,1,76.18,219.15Z"/><path class="cls-1" d="M57.44,216.16c-.85-1.21.24-3.89,2.24-5.45,2.81-2.18,4.91-2.21,5.9-1.39.69.58.88,3.41-2.39,6C60.55,217.34,58.12,217.12,57.44,216.16Z"/><path class="cls-2" d="M65.75,210.25c1.93,2.17,6.66,9,6.45,10.21-.61,3.47-4.56,4.46-5.94,3.57-.82-.52-8-6.27-7.79-8.46C58.85,212.24,64.55,208.9,65.75,210.25Z"/><path class="cls-5" d="M65.75,210.25a48.77,48.77,0,0,1,3.17,4.14,46.28,46.28,0,0,1,2.78,4.43,6.46,6.46,0,0,1,.51,1.21,1.13,1.13,0,0,1,0,.68,3.48,3.48,0,0,1-.18.63,4.7,4.7,0,0,1-1.58,2.1,5.43,5.43,0,0,1-2.44,1,3.38,3.38,0,0,1-1.34-.08,3.79,3.79,0,0,1-1.15-.69c-1.36-1.09-2.68-2.23-3.93-3.45-.62-.61-1.22-1.25-1.78-1.92A6.67,6.67,0,0,1,58.45,216a3.71,3.71,0,0,1,.79-2.48,8.68,8.68,0,0,1,1.8-1.88,9.76,9.76,0,0,1,2.23-1.35,5.06,5.06,0,0,1,1.26-.37A1.41,1.41,0,0,1,65.75,210.25Zm0,0a1.37,1.37,0,0,0-1.22-.27,4.82,4.82,0,0,0-1.24.38,9.8,9.8,0,0,0-2.21,1.36,8.87,8.87,0,0,0-1.77,1.9,3.63,3.63,0,0,0-.74,2.39,6.61,6.61,0,0,0,1.36,2.17,24.41,24.41,0,0,0,1.79,1.88,51,51,0,0,0,4,3.39,3.23,3.23,0,0,0,1.06.66,2.87,2.87,0,0,0,1.24.09,5,5,0,0,0,2.36-.91,4.46,4.46,0,0,0,1.54-2,3.41,3.41,0,0,0,.19-.62,1,1,0,0,0,0-.6,7.26,7.26,0,0,0-.49-1.19,43,43,0,0,0-2.72-4.45A48.79,48.79,0,0,0,65.75,210.25Z"/><path class="cls-1" d="M66.19,224.31c-.52-1.26.84-3,2.47-4,2.12-1.32,3.88-.7,4.28.42.26.72-.29,2.74-2.64,3.7C68.59,225.12,66.6,225.31,66.19,224.31Z"/><path class="cls-2" d="M67.39,224.91c.25,2.69,1.38,8.54,3.62,11,1.49,1.63,2.89.7,3.23-.87s.2-12.49-1.38-14.14S67.19,222.7,67.39,224.91Z"/><path class="cls-5" d="M67.39,224.91a34.36,34.36,0,0,0,.86,4.72,22.35,22.35,0,0,0,1.64,4.49,8.07,8.07,0,0,0,1.38,1.93,1.57,1.57,0,0,0,2,.36,2.61,2.61,0,0,0,.9-2.06c0-.79.06-1.59,0-2.39,0-1.6,0-3.2-.15-4.79a26.9,26.9,0,0,0-.65-4.74c-.2-.74-.45-1.63-1.24-1.86a3,3,0,0,0-2.24.54,6.87,6.87,0,0,0-1.76,1.6A3.6,3.6,0,0,0,67.39,224.91Zm0,0a3.6,3.6,0,0,1,.82-2.22A6.63,6.63,0,0,1,70,221.06a3,3,0,0,1,2.29-.58,1.49,1.49,0,0,1,.92.78,5.77,5.77,0,0,1,.42,1.14,28.24,28.24,0,0,1,.72,4.75c.13,1.6.2,3.21.21,4.81,0,.8,0,1.61-.09,2.41a2.82,2.82,0,0,1-1,2.19,1.45,1.45,0,0,1-1.21.23,2.44,2.44,0,0,1-1.06-.63,8.19,8.19,0,0,1-1.38-2,22,22,0,0,1-1.59-4.54A33.14,33.14,0,0,1,67.39,224.91Z"/><path class="cls-1" d="M51,218.26c-.46-1.29,1.18-3.41,3.34-4.29,3-1.24,4.91-.75,5.59.23.47.68-.06,3.24-3.6,4.7C53.42,220.08,51.32,219.28,51,218.26Z"/><path class="cls-2" d="M59.81,215.07c1.18,2.41,3.67,9.66,3.19,10.68-1.41,2.93-5.16,2.83-6.17,1.7-.6-.67-5.58-7.58-4.82-9.46C53.18,215.12,59.07,213.57,59.81,215.07Z"/><path class="cls-5" d="M59.81,215.07a47.87,47.87,0,0,1,1.79,4.47A43.72,43.72,0,0,1,63,224.16a6.16,6.16,0,0,1,.15,1.21,1,1,0,0,1-.16.6,2.85,2.85,0,0,1-.33.52A4.26,4.26,0,0,1,60.71,228a4.86,4.86,0,0,1-2.42.26,2.91,2.91,0,0,1-1.17-.4,3.29,3.29,0,0,1-.85-.9,46.84,46.84,0,0,1-2.64-4.05,24.06,24.06,0,0,1-1.11-2.14,6.34,6.34,0,0,1-.65-2.34,3.4,3.4,0,0,1,1.32-2,7.51,7.51,0,0,1,2.07-1.23,8.88,8.88,0,0,1,2.32-.64,4.46,4.46,0,0,1,1.21,0A1.33,1.33,0,0,1,59.81,215.07Zm0,0a1.3,1.3,0,0,0-1-.54,4.32,4.32,0,0,0-1.19,0,9.06,9.06,0,0,0-2.3.66,7.61,7.61,0,0,0-2,1.25A3.31,3.31,0,0,0,52,218.41a5.94,5.94,0,0,0,.66,2.26,23.89,23.89,0,0,0,1.13,2.12,44.81,44.81,0,0,0,2.68,4,3,3,0,0,0,.77.85,2.9,2.9,0,0,0,1.09.39,4.71,4.71,0,0,0,2.32-.23,4.13,4.13,0,0,0,1.86-1.39,3.27,3.27,0,0,0,.32-.5.84.84,0,0,0,.15-.53,5.94,5.94,0,0,0-.14-1.18,39.28,39.28,0,0,0-1.3-4.63A47.81,47.81,0,0,0,59.81,215.07Z"/><path class="cls-1" d="M55.78,226.07c.13-1.25,2-2.06,3.76-2.17,2.31-.14,3.47,1.14,3.3,2.22-.11.71-1.44,2.1-3.77,1.85C57.37,227.79,55.67,227.07,55.78,226.07Z"/><path class="cls-2" d="M56.49,227.09c-1,2.3-2.63,7.54-1.88,10.51.5,2,2,1.84,3,.72s5.64-10.06,5.08-12.1S57.29,225.21,56.49,227.09Z"/><path class="cls-5" d="M56.49,227.09a32.83,32.83,0,0,0-1.37,4.21,20.3,20.3,0,0,0-.63,4.37,7.14,7.14,0,0,0,.27,2.17c.2.67.78,1.33,1.5,1.19a2.39,2.39,0,0,0,1.62-1.28c.39-.62.75-1.26,1.1-1.92.7-1.29,1.37-2.61,2-4a24.89,24.89,0,0,0,1.55-4.14c.17-.68.36-1.52-.19-2.05a2.78,2.78,0,0,0-2-.54,6.07,6.07,0,0,0-2.13.53A3.26,3.26,0,0,0,56.49,227.09Zm0,0a3.34,3.34,0,0,1,1.64-1.44,6.11,6.11,0,0,1,2.14-.56,2.87,2.87,0,0,1,2.12.53,1.43,1.43,0,0,1,.4,1,5.13,5.13,0,0,1-.16,1.11,24.79,24.79,0,0,1-1.5,4.18c-.59,1.36-1.24,2.69-1.93,4-.36.65-.73,1.3-1.13,1.92a2.62,2.62,0,0,1-1.78,1.34,1.29,1.29,0,0,1-1.09-.35,2.27,2.27,0,0,1-.59-1,7.61,7.61,0,0,1-.25-2.22,20.21,20.21,0,0,1,.7-4.38A32.45,32.45,0,0,1,56.49,227.09Z"/><path class="cls-1" d="M1.34,152.73s4.1-4.19,8.49-5.34,12.44-3.3,12.44-3.3S26.66,162.6,26,164.41s-12.87,8.21-14.51,7S1.34,152.73,1.34,152.73Z"/><path class="cls-2" d="M6.42,165.65c.12,7.79,23.2,31.51,29.06,31,2.73-.23,2.13-6.78,5.68-10.64,4.08-4.43,11.09-3.17,10.66-6-.82-5.29-18.36-23.78-22.26-25.87S6.3,157.34,6.42,165.65Z"/><g class="cls-7"><path d="M16.7,171.63a.88.88,0,0,1,1.23-.45.9.9,0,0,1,.31,1.28.88.88,0,0,1-1.54-.83Zm1.35.73a.68.68,0,0,0-.32-.8.66.66,0,1,0,.32.8Z"/><path d="M21.58,177.26a.88.88,0,1,1,1.53.83.89.89,0,0,1-1.13.26A.87.87,0,0,1,21.58,177.26Zm1.34.72a.65.65,0,0,0-.32-.79.66.66,0,1,0,.32.79Z"/><path d="M26.3,182.75a.88.88,0,1,1,.41,1.08A.88.88,0,0,1,26.3,182.75Zm1.35.72a.66.66,0,1,0-.94.36A.66.66,0,0,0,27.65,183.47Z"/><path d="M30.66,187.83a.88.88,0,1,1,1.54.82.88.88,0,0,1-1.54-.82Zm1.35.72a.66.66,0,1,0-.94.36A.66.66,0,0,0,32,188.55Z"/><path d="M16.54,174.41a32.29,32.29,0,0,0,3.39,5.05c1.26,1.6,2.61,3.12,4,4.61s2.85,2.9,4.33,4.29l2.26,2,2.33,2-4.36-4.24c-1.43-1.44-2.88-2.86-4.25-4.35s-2.75-3-4-4.52c-.66-.77-1.29-1.56-1.91-2.36A26.89,26.89,0,0,1,16.54,174.41Z"/></g><path class="cls-2" d="M26.69,154.4C23,157.52,3.26,158.05.25,153.58s21.49-49.2,27.28-52.31c3.1-1.66,7.06,11.58,8.16,18.71C36.22,123.38,34.23,148,26.69,154.4Z"/><g class="cls-7"><path d="M30,106.12a.88.88,0,1,1-.84.81A.89.89,0,0,1,30,106.12Zm-.13,1.53a.67.67,0,1,0-.71-.72A.67.67,0,0,0,29.87,107.65Z"/><path d="M26,113.47a.88.88,0,1,1-.83.8A.88.88,0,0,1,26,113.47ZM25.83,115a.67.67,0,0,0,.11-1.31.67.67,0,1,0-.11,1.31Z"/><path d="M21.84,120.38a.88.88,0,1,1-.14,1.74.88.88,0,0,1,.14-1.74Zm-.12,1.52a.66.66,0,1,0-.71-.71A.66.66,0,0,0,21.72,121.9Z"/><path d="M18.36,126.87a.88.88,0,1,1-.83.8A.86.86,0,0,1,18.36,126.87Zm-.13,1.52a.67.67,0,0,0,.11-1.31.66.66,0,1,0-.11,1.31Z"/><path d="M15.14,133.58a.88.88,0,1,1-.14,1.74.88.88,0,0,1,.14-1.74ZM15,135.11a.68.68,0,0,0,.6-.61.67.67,0,0,0-.5-.7.66.66,0,0,0-.81.59A.67.67,0,0,0,15,135.11Z"/><path d="M12,140.1a.88.88,0,1,1-.84.81A.89.89,0,0,1,12,140.1Zm-.13,1.53a.67.67,0,0,0,.6-.61.66.66,0,0,0-.49-.7.67.67,0,0,0-.82.59A.67.67,0,0,0,11.87,141.63Z"/><path d="M28.1,103.7c-1.87,2.85-3.67,5.73-5.43,8.65s-3.46,5.86-5.14,8.82-3.27,6-4.79,9-3,6.14-4.24,9.29c1.42-3.09,3-6.12,4.54-9.13s3.2-6,4.87-9,3.35-5.92,5-8.86S26.37,106.63,28.1,103.7Z"/></g></g><g id="Chart_1" data-name="Chart 1"><path class="cls-8" d="M216.91,57.86v50.21h95V37.4H238.88A23.83,23.83,0,0,1,216.91,57.86Z"/><rect class="cls-9" x="227.26" y="98.73" width="3.83" height="3.83"/><rect class="cls-9" x="233.75" y="98.73" width="41.95" height="1.13"/><rect class="cls-9" x="233.75" y="101.43" width="27.1" height="1.13"/><path class="cls-9" d="M225.55,57.5c13-.08,25.92-.06,38.88-.1s25.91,0,38.87.1c-13,.08-25.92.06-38.87.09S238.51,57.58,225.55,57.5Z"/><path class="cls-9" d="M225.55,65.18c13-.08,25.92-.06,38.88-.09s25.91,0,38.87.09c-13,.08-25.92.06-38.87.09S238.51,65.26,225.55,65.18Z"/><path class="cls-9" d="M225.55,72.86c13-.08,25.92-.06,38.88-.09s25.91,0,38.87.09c-13,.08-25.92.06-38.87.1S238.51,72.94,225.55,72.86Z"/><path class="cls-9" d="M225.55,80.54c13-.08,25.92-.06,38.88-.09s25.91,0,38.87.09c-13,.08-25.92.06-38.87.1S238.51,80.62,225.55,80.54Z"/><path class="cls-9" d="M225.55,88.23c13-.09,25.92-.06,38.88-.1s25.91,0,38.87.1c-13,.08-25.92.06-38.87.09S238.51,88.31,225.55,88.23Z"/><path class="cls-9" d="M241.2,52.5c.12,7.18.09,14.36.14,21.54s0,14.35-.14,21.53c-.11-7.18-.08-14.36-.13-21.53S241.09,59.68,241.2,52.5Z"/><path class="cls-9" d="M254.65,52.5c.11,7.18.08,14.36.13,21.54s0,14.35-.13,21.53c-.11-7.18-.09-14.36-.13-21.53S254.54,59.68,254.65,52.5Z"/><path class="cls-9" d="M268.09,52.5c.12,7.18.09,14.36.14,21.54s0,14.35-.14,21.53C268,88.39,268,81.21,268,74S268,59.68,268.09,52.5Z"/><path class="cls-9" d="M281.54,52.5c.11,7.18.08,14.36.13,21.54s0,14.35-.13,21.53c-.12-7.18-.09-14.36-.13-21.53S281.43,59.68,281.54,52.5Z"/><path class="cls-9" d="M295,52.5c.12,7.18.09,14.36.14,21.54s0,14.35-.14,21.53c-.11-7.18-.08-14.36-.13-21.53S294.87,59.68,295,52.5Z"/><path class="cls-10" d="M227.51,82.65c2.37,0,3.79-7.8,7.15-7.8s3.71,5.69,6.54,5.69,2.75-10,6.55-10,2.92,4.06,6.9,4.06,2.48-9.42,6.63-9.42,2.48,13,6.81,13c2.75,0,3.81-4.12,7.08-4.12,2.17,0,3.45,2.06,6.28,2.06s3.45-7.93,7-7.93,3.94,4.69,6.54,4.69,3.54-7.68,8.32-7.68V95.57H227.51Z"/><path class="cls-9" d="M227.51,83v-.75c.72,0,1.71-1.82,2.43-3.16,1.24-2.28,2.53-4.65,4.72-4.65s3.15,1.74,4.07,3.26c.72,1.2,1.47,2.44,2.47,2.44s1.66-2.4,2.22-4.16c.91-2.87,1.86-5.84,4.33-5.84a4.28,4.28,0,0,1,3.83,2.19c.74,1,1.38,1.87,3.07,1.87,1.53,0,2.13-2.21,2.71-4.33.68-2.51,1.38-5.1,3.92-5.1s3.17,3.26,3.85,6.72c.55,2.79,1.24,6.26,3,6.26,1,0,1.88-.85,2.77-1.76,1.09-1.11,2.32-2.36,4.31-2.36a6.11,6.11,0,0,1,3,1,6.43,6.43,0,0,0,3.25,1c1,0,1.88-1.88,2.6-3.4,1.05-2.22,2.15-4.52,4.39-4.52s3.32,1.49,4.29,2.81c.71,1,1.38,1.88,2.25,1.88s1.6-1.46,2.35-2.75c1.27-2.2,2.86-4.94,6-4.94v.76c-2.39,0-3.77,2.37-5,4.46-1,1.8-1.86,3.22-3.33,3.22s-2.33-1.11-3.19-2.28-1.77-2.41-3.35-2.41-2.49,2.13-3.39,4c-1,2.1-1.86,3.91-3.6,3.91a7.64,7.64,0,0,1-3.91-1.21,5,5,0,0,0-2.37-.85c-1.43,0-2.45,1-3.43,2s-2.06,2.08-3.65,2.08c-2.65,0-3.31-3.35-4-6.91-.54-2.7-1.2-6.06-2.8-6.06S259,67.94,258.4,70c-.69,2.54-1.34,4.94-3.75,4.94a4.44,4.44,0,0,1-4-2.27c-.72-1-1.33-1.79-2.89-1.79s-2.55,2.91-3.3,5.26c-.84,2.65-1.51,4.74-3.25,4.74s-2.55-1.41-3.45-2.89-1.69-2.8-3.09-2.8-2.72,2.31-3.73,4.16C229.83,81.42,229,83,227.51,83Z"/><path class="cls-9" d="M227.51,53c.09,7.1.16,14.2.17,21.3l.08,21.3-.25-.18,37.89,0,19,0,18.95.1-18.95.1-19,0-37.89,0h-.25v-.18l.08-21.3C227.35,67.17,227.42,60.07,227.51,53Z"/><g class="cls-11"><path class="cls-2" d="M234.81,29.37a27.06,27.06,0,0,1-4.12,12.47l-6.94-4a19.39,19.39,0,0,0,3-8.46Z"/><path class="cls-2" d="M234.89,27.29c0,.29,0,.58,0,.87h-8c0-.29,0-.58,0-.87a19.28,19.28,0,0,0-8.68-16.12l4-6.94A27.29,27.29,0,0,1,234.89,27.29Z"/><path class="cls-2" d="M221.17,3.6l-4,6.94a19.13,19.13,0,0,0-9-2.53V0A27,27,0,0,1,221.17,3.6Z"/><path class="cls-2" d="M207,0V8a19.24,19.24,0,0,0-16,9.5l-6.94-4A27.29,27.29,0,0,1,207,0Z"/><path class="cls-2" d="M190.39,18.57A19.18,19.18,0,0,0,188.32,27h-8a27.09,27.09,0,0,1,3.14-12.39Z"/><path class="cls-2" d="M196.85,43.3l-4,7a27.23,27.23,0,0,1-12.52-22.09h8A19.23,19.23,0,0,0,196.85,43.3Z"/><path class="cls-2" d="M230,42.84a27.28,27.28,0,0,1-36.14,8l4-6.93a19.31,19.31,0,0,0,25.18-5.13Z"/><circle class="cls-2" cx="207.6" cy="27.29" r="12.7" transform="translate(147.28 227.8) rotate(-80.75)"/><rect class="cls-2" x="207.31" y="52.18" width="1.26" height="87.92"/><rect class="cls-2" x="205.64" y="138.71" width="4.6" height="4.6" transform="translate(66.93 348.95) rotate(-90)"/></g></g></g></svg>